<svg xmlns="http://www.w3.org/2000/svg" viewBox="0 0 64 64" width="100%" height="100%">
  <defs>
    <!-- WhatsApp Green Gradient -->
    <linearGradient id="wa-grad" x1="0%" y1="0%" x2="100%" y2="100%">
      <stop offset="0%" stop-color="#25D366" />
      <stop offset="100%" stop-color="#128C7E" />
    </linearGradient>
  </defs>

  <!-- Main Chat Bubble -->
  <path d="M32 2 C16.5 2 4 14.5 4 30 C4 36.2 6.1 42 9.8 46.7 L5 56 L15 52.3 C19.9 55.4 25.7 57.2 32 57.2 C47.5 57.2 60 44.7 60 29.2 C60 13.7 47.5 2 32 2 Z" fill="url(#wa-grad)"/>

  <!-- Neural Network / CMR Nodes -->
  <circle cx="22" cy="26" r="4.5" fill="#FFFFFF"/>
  <circle cx="42" cy="26" r="4.5" fill="#FFFFFF"/>
  <circle cx="32" cy="40" r="4.5" fill="#FFFFFF"/>
  
  <!-- Connecting Lines -->
  <line x1="24.5" y1="29.5" x2="29.5" y2="36.5" stroke="#FFFFFF" stroke-width="3" stroke-linecap="round"/>
  <line x1="39.5" y1="29.5" x2="34.5" y2="36.5" stroke="#FFFFFF" stroke-width="3" stroke-linecap="round"/>
  <line x1="27" y1="26" x2="37" y2="26" stroke="#FFFFFF" stroke-width="3" stroke-linecap="round"/>

  <!-- Small AI Sparkle -->
  <path d="M 52 4 Q 52 10 58 10 Q 52 10 52 16 Q 52 10 46 10 Q 52 10 52 4 Z" fill="#4A90E2" />
</svg>
